<svg width="275" height="106" viewBox="0 0 275 106" fill="none" xmlns="http://www.w3.org/2000/svg">
<mask id="mask0_2_20" style="mask-type:alpha" maskUnits="userSpaceOnUse" x="6" y="27" width="213" height="50">
<path d="M77.0992 27.8414L55.6011 77H41.1056L38.9347 44.7178L25.1395 77H10.644L6.8626 27.8414H19.6775L20.4477 63.6249L35.5034 27.8414H48.7385L50.8393 63.4149L64.2143 27.8414H77.0992ZM118.328 27.8414L109.645 77H97.67L101.241 56.6223H82.6143L79.043 77H67.0684L75.7517 27.8414H87.7263L84.295 47.1687H102.922L106.353 27.8414H118.328ZM129.913 37.295L128.163 47.5188H144.199L142.588 56.5523H126.552L124.591 67.5464H142.728L141.048 77H110.936L119.62 27.8414H149.731L148.05 37.295H129.913ZM170.25 27.8414C175.338 27.8414 179.213 29.0085 181.874 31.3427C184.535 33.6302 185.866 36.618 185.866 40.3061C185.866 41.3798 185.772 42.3836 185.586 43.3172C185.025 46.5851 183.602 49.5029 181.314 52.0706C179.026 54.6382 175.969 56.4589 172.141 57.5326L180.053 77H166.538L159.606 58.443H156.735L153.443 77H141.469L150.152 27.8414H170.25ZM173.331 43.8074C173.424 43.0605 173.471 42.5703 173.471 42.3369C173.471 40.843 172.981 39.6992 172 38.9056C171.067 38.0653 169.666 37.6451 167.799 37.6451H160.376L158.205 49.9698H165.628C167.822 49.9698 169.55 49.4329 170.81 48.3592C172.117 47.2854 172.957 45.7682 173.331 43.8074ZM198.775 37.295L197.024 47.5188H213.06L211.449 56.5523H195.413L193.453 67.5464H211.59L209.909 77H179.797L188.481 27.8414H218.592L216.912 37.295H198.775Z" fill="white"/>
</mask>
<g mask="url(#mask0_2_20)">
<path d="M-6.56497 5.93762L183.455 14.2242L171.054 82.7918L-6.56497 94.2002V5.93762Z" fill="#FAFAFF"/>
</g>
<path d="M189.031 34.774V49.0594H205.837V55.5719H189.031V70.4875H207.938V77H181.048V28.2615H207.938V34.774H189.031ZM207.757 57.5326C207.757 53.6578 208.55 50.2265 210.138 47.2387C211.772 44.2509 213.966 41.9401 216.72 40.3061C219.521 38.6255 222.602 37.7851 225.964 37.7851C228.998 37.7851 231.636 38.392 233.877 39.6058C236.164 40.7729 237.985 42.2435 239.339 44.0175V38.4154H247.392V77H239.339V71.2578C237.985 73.0785 236.141 74.5958 233.807 75.8095C231.473 77.0233 228.812 77.6302 225.824 77.6302C222.509 77.6302 219.475 76.7899 216.72 75.1093C213.966 73.382 211.772 71.0011 210.138 67.9666C208.55 64.8854 207.757 61.4074 207.757 57.5326ZM239.339 57.6727C239.339 55.0117 238.779 52.7008 237.658 50.7401C236.584 48.7793 235.161 47.2854 233.387 46.2584C231.613 45.2313 229.699 44.7178 227.644 44.7178C225.59 44.7178 223.676 45.2313 221.902 46.2584C220.128 47.2387 218.681 48.7093 217.561 50.67C216.487 52.5841 215.95 54.8716 215.95 57.5326C215.95 60.1936 216.487 62.5279 217.561 64.5353C218.681 66.5427 220.128 68.0833 221.902 69.157C223.723 70.1841 225.637 70.6976 227.644 70.6976C229.699 70.6976 231.613 70.1841 233.387 69.157C235.161 68.13 236.584 66.6361 237.658 64.6753C238.779 62.6679 239.339 60.3337 239.339 57.6727ZM259.838 44.9279V66.2859C259.838 67.7332 260.165 68.7836 260.818 69.4371C261.519 70.044 262.686 70.3475 264.32 70.3475H269.222V77H262.919C259.324 77 256.57 76.1597 254.656 74.479C252.742 72.7984 251.785 70.0674 251.785 66.2859V44.9279H247.233V38.4154H251.785V28.8218H259.838V38.4154H269.222V44.9279H259.838Z" fill="#36BB33"/>
</svg>
